<svg width="710" height="996" viewBox="0 0 710 996" fill="none" xmlns="http://www.w3.org/2000/svg">
<g filter="url(#filter0_i_0_1)">
<path d="M445 180C445 250.969 354.782 268 280.5 268C206.218 268 146 210.469 146 139.5C146 68.5314 245.718 0 320 0C394.282 0 445 109.031 445 180Z" fill="#C95050"/>
</g>
<g filter="url(#filter1_d_0_1)">
<path d="M266.01 261.122C266.01 306.15 444.794 461.5 185.08 461.5C-91.0306 461.5 100.978 306.15 100.978 261.122C100.978 216.095 138.632 175 185.08 175C231.529 175 266.01 216.095 266.01 261.122Z" fill="#D9D9D9"/>
</g>
<path d="M155.92 267.76C154 267.76 152.2 267.4 150.52 266.68C148.867 265.96 147.4 264.973 146.12 263.72C144.84 262.44 143.84 260.96 143.12 259.28C142.4 257.6 142.04 255.8 142.04 253.88C142.04 251.96 142.4 250.173 143.12 248.52C143.84 246.84 144.827 245.36 146.08 244.08C147.36 242.8 148.84 241.8 150.52 241.08C152.2 240.36 154 240 155.92 240C157.84 240 159.64 240.36 161.32 241.08C163 241.8 164.467 242.8 165.72 244.08C167 245.333 168 246.8 168.72 248.48C169.44 250.16 169.8 251.96 169.8 253.88C169.8 255.8 169.44 257.6 168.72 259.28C168.027 260.96 167.04 262.44 165.76 263.72C164.507 264.973 163.04 265.96 161.36 266.68C159.68 267.4 157.867 267.76 155.92 267.76ZM161.12 256.96C161.973 256.96 162.693 256.653 163.28 256.04C163.893 255.427 164.2 254.707 164.2 253.88C164.2 253.027 163.893 252.307 163.28 251.72C162.693 251.107 161.973 250.8 161.12 250.8C160.293 250.8 159.573 251.107 158.96 251.72C158.347 252.307 158.04 253.027 158.04 253.88C158.04 254.707 158.347 255.427 158.96 256.04C159.573 256.653 160.293 256.96 161.12 256.96ZM188.37 268.227C187.669 268.227 187.068 267.976 186.566 267.474C186.064 266.973 185.813 266.371 185.813 265.67C185.813 264.97 186.064 264.368 186.566 263.866C187.068 263.365 187.669 263.114 188.37 263.114C189.071 263.114 189.672 263.365 190.174 263.866C190.676 264.368 190.927 264.97 190.927 265.67C190.927 266.134 190.808 266.561 190.572 266.949C190.344 267.337 190.037 267.65 189.648 267.886C189.27 268.114 188.844 268.227 188.37 268.227ZM174.489 270.216H176.364C176.364 270.955 176.6 271.546 177.074 271.991C177.538 272.437 178.097 272.659 178.75 272.659C179.631 272.659 180.279 272.437 180.696 271.991C181.103 271.546 181.307 270.955 181.307 270.216H183.182C183.182 271.125 183.016 271.93 182.685 272.631C182.344 273.331 181.847 273.881 181.193 274.278C180.53 274.676 179.716 274.875 178.75 274.875C177.528 274.875 176.515 274.439 175.71 273.568C174.896 272.697 174.489 271.58 174.489 270.216ZM181.307 270.216H183.182C183.182 270.955 183.39 271.546 183.807 271.991C184.214 272.437 184.858 272.659 185.739 272.659C186.392 272.659 186.955 272.437 187.429 271.991C187.893 271.546 188.125 270.955 188.125 270.216H190C190 271.125 189.82 271.93 189.46 272.631C189.091 273.331 188.589 273.881 187.955 274.278C187.311 274.676 186.572 274.875 185.739 274.875C184.773 274.875 183.963 274.676 183.31 274.278C182.647 273.881 182.15 273.331 181.818 272.631C181.477 271.93 181.307 271.125 181.307 270.216ZM220.92 267.76C219 267.76 217.2 267.4 215.52 266.68C213.867 265.96 212.4 264.973 211.12 263.72C209.84 262.44 208.84 260.96 208.12 259.28C207.4 257.6 207.04 255.8 207.04 253.88C207.04 251.96 207.4 250.173 208.12 248.52C208.84 246.84 209.827 245.36 211.08 244.08C212.36 242.8 213.84 241.8 215.52 241.08C217.2 240.36 219 240 220.92 240C222.84 240 224.64 240.36 226.32 241.08C228 241.8 229.467 242.8 230.72 244.08C232 245.333 233 246.8 233.72 248.48C234.44 250.16 234.8 251.96 234.8 253.88C234.8 255.8 234.44 257.6 233.72 259.28C233.027 260.96 232.04 262.44 230.76 263.72C229.507 264.973 228.04 265.96 226.36 266.68C224.68 267.4 222.867 267.76 220.92 267.76ZM226.12 256.96C226.973 256.96 227.693 256.653 228.28 256.04C228.893 255.427 229.2 254.707 229.2 253.88C229.2 253.027 228.893 252.307 228.28 251.72C227.693 251.107 226.973 250.8 226.12 250.8C225.293 250.8 224.573 251.107 223.96 251.72C223.347 252.307 223.04 253.027 223.04 253.88C223.04 254.707 223.347 255.427 223.96 256.04C224.573 256.653 225.293 256.96 226.12 256.96Z" fill="#262626"/>
<path d="M291.234 118.728C288.239 118.047 285.558 116.848 283.192 115.129C280.867 113.419 278.929 111.36 277.376 108.951C275.832 106.5 274.797 103.837 274.269 100.96C273.741 98.0837 273.817 95.1476 274.498 92.152C275.178 89.1563 276.373 86.4962 278.083 84.1718C279.801 81.8058 281.865 79.8463 284.275 78.2935C286.725 76.75 289.389 75.7143 292.265 75.1864C295.142 74.6585 298.078 74.7348 301.074 75.4153C304.069 76.0958 306.75 77.2955 309.116 79.0143C311.482 80.7331 313.416 82.8132 314.918 85.2546C316.471 87.6638 317.511 90.3066 318.039 93.183C318.567 96.0594 318.491 98.9954 317.81 101.991C317.13 104.987 315.93 107.668 314.211 110.034C312.534 112.409 310.47 114.369 308.019 115.912C305.619 117.423 302.981 118.443 300.105 118.971C297.229 119.499 294.272 119.418 291.234 118.728ZM303.176 103.72C304.507 104.023 305.739 103.799 306.872 103.05C308.046 102.311 308.78 101.296 309.073 100.006C309.375 98.6748 309.152 97.4428 308.403 96.31C307.705 95.1452 306.69 94.4115 305.359 94.109C304.069 93.816 302.837 94.0393 301.663 94.7789C300.498 95.4768 299.764 96.4915 299.462 97.8229C299.169 99.1127 299.392 100.345 300.132 101.519C300.871 102.693 301.886 103.427 303.176 103.72ZM345.646 131.187C343.399 130.676 341.388 129.777 339.614 128.487C337.871 127.205 336.417 125.661 335.252 123.854C334.094 122.016 333.318 120.018 332.922 117.861C332.526 115.704 332.583 113.502 333.093 111.255C333.604 109.008 334.5 107.013 335.782 105.27C337.071 103.495 338.619 102.026 340.426 100.861C342.264 99.7033 344.262 98.9266 346.419 98.5306C348.576 98.1347 350.778 98.1919 353.025 98.7023C355.272 99.2127 357.283 100.112 359.057 101.402C360.832 102.691 362.282 104.251 363.408 106.082C364.573 107.889 365.353 109.871 365.749 112.028C366.145 114.185 366.088 116.387 365.578 118.634C365.067 120.881 364.168 122.892 362.878 124.666C361.621 126.448 360.073 127.917 358.234 129.075C356.435 130.208 354.456 130.973 352.299 131.369C350.141 131.765 347.924 131.704 345.646 131.187ZM354.602 119.931C355.6 120.158 356.524 119.99 357.374 119.429C358.255 118.874 358.805 118.113 359.025 117.146C359.252 116.147 359.084 115.223 358.522 114.373C357.999 113.5 357.238 112.949 356.239 112.723C355.272 112.503 354.348 112.67 353.467 113.225C352.593 113.748 352.043 114.509 351.816 115.508C351.597 116.475 351.764 117.399 352.319 118.28C352.873 119.161 353.634 119.711 354.602 119.931ZM274.672 174.837L273.841 178.494L252.565 173.66L253.395 170.004L274.672 174.837Z" fill="black"/>
<g filter="url(#filter2_i_0_1)">
<path d="M648.5 384.5C648.5 460.439 523.156 578 437 578C350.844 578 290 479.939 290 404C290 328.061 373.797 284 459.954 284C546.11 284 648.5 308.561 648.5 384.5Z" fill="#3F8FE5"/>
</g>
<path d="M420.592 411.326C417.152 410.686 414.043 409.435 411.265 407.573C408.478 405.752 406.143 403.495 404.257 400.801C402.421 398.072 401.134 395.077 400.395 391.815C399.698 388.561 399.67 385.214 400.31 381.774C400.958 378.292 402.188 375.18 404 372.435C405.862 369.657 408.137 367.346 410.823 365.502C413.559 363.624 416.555 362.337 419.809 361.64C423.071 360.902 426.422 360.853 429.861 361.492C433.343 362.14 436.452 363.391 439.188 365.245C441.975 367.066 444.286 369.34 446.122 372.068C448.007 374.763 449.298 377.737 449.995 380.991C450.741 384.211 450.791 387.562 450.143 391.044C449.503 394.484 448.252 397.593 446.39 400.371C444.57 403.157 442.292 405.489 439.555 407.367C436.869 409.211 433.898 410.481 430.644 411.178C427.424 411.924 424.073 411.973 420.592 411.326ZM402.953 382.266L425.227 386.409L429.37 364.135C426.266 363.558 423.262 363.607 420.359 364.282C417.464 364.915 414.797 366.068 412.36 367.741C409.972 369.38 407.941 371.432 406.267 373.899C404.635 376.373 403.53 379.162 402.953 382.266ZM464.377 417.257C456.826 415.853 453.185 410.228 454.578 402.74L455.983 395.19L460.01 395.939L458.863 402.105C457.517 409.341 459.593 412.527 465.004 413.533C470.541 414.563 473.51 412.251 474.845 405.078L475.992 398.912L480.019 399.661L478.871 405.827C477.525 413.063 479.602 416.249 485.013 417.255C490.487 418.273 493.519 415.973 494.853 408.8L496 402.634L500.027 403.383L498.623 410.934C497.206 418.547 491.873 422.372 484.385 420.979C479.792 420.125 476.75 417.931 475.208 414.324C472.597 417.159 468.97 418.112 464.377 417.257ZM527.262 431.168C523.822 430.528 520.713 429.277 517.935 427.415C515.149 425.595 512.813 423.338 510.927 420.644C509.091 417.915 507.804 414.92 507.065 411.658C506.369 408.403 506.34 405.056 506.98 401.617C507.628 398.135 508.858 395.022 510.67 392.278C512.532 389.5 514.807 387.189 517.493 385.345C520.229 383.467 523.225 382.18 526.479 381.483C529.741 380.745 533.092 380.695 536.532 381.335C540.013 381.983 543.122 383.234 545.859 385.088C548.645 386.908 550.956 389.183 552.792 391.911C554.677 394.606 555.969 397.58 556.665 400.834C557.411 404.054 557.461 407.405 556.813 410.887C556.173 414.326 554.922 417.435 553.06 420.214C551.24 423 548.962 425.332 546.225 427.21C543.539 429.054 540.569 430.324 537.314 431.02C534.094 431.767 530.743 431.816 527.262 431.168ZM509.623 402.108L531.897 406.252L536.04 383.978C532.936 383.4 529.932 383.449 527.029 384.124C524.134 384.758 521.467 385.911 519.03 387.584C516.642 389.223 514.611 391.275 512.937 393.741C511.305 396.215 510.2 399.004 509.623 402.108Z" fill="black"/>
<g filter="url(#filter3_f_0_1)">
<path d="M209.263 435L333.947 519L350.197 588.75L366.447 658.5L169.947 705.5L15 650.5L55.6836 509.5L209.263 435Z" fill="#EC5477"/>
</g>
<path d="M84.728 584.64C83.7467 584.64 82.7867 584.555 81.848 584.384C80.952 584.256 80.2267 584.107 79.672 583.936V579.392C80.0987 579.563 80.696 579.712 81.464 579.84C82.2747 579.968 83.0853 580.032 83.896 580.032C85.9013 580.032 87.5227 579.605 88.76 578.752C90.04 577.899 90.9787 576.661 91.576 575.04C92.1733 573.376 92.472 571.371 92.472 569.024C92.472 565.355 91.768 562.752 90.36 561.216C88.952 559.68 86.7973 558.912 83.896 558.912C81.336 558.912 79.352 559.488 77.944 560.64C76.5787 561.749 75.896 563.435 75.896 565.696C75.896 567.488 76.3013 568.875 77.112 569.856C77.9653 570.837 79.0533 571.328 80.376 571.328C80.5893 571.328 80.8667 571.307 81.208 571.264C81.5493 571.221 81.8693 571.157 82.168 571.072L83.064 575.36C82.6373 575.659 82.0827 575.893 81.4 576.064C80.76 576.192 80.0773 576.256 79.352 576.256C76.408 576.256 74.168 575.275 72.632 573.312C71.1387 571.307 70.392 568.789 70.392 565.76C70.392 561.963 71.5653 559.104 73.912 557.184C76.3013 555.221 79.6293 554.24 83.896 554.24C88.9733 554.24 92.6213 555.541 94.84 558.144C97.1013 560.704 98.232 564.267 98.232 568.832C98.232 571.819 97.7627 574.507 96.824 576.896C95.928 579.285 94.4773 581.184 92.472 582.592C90.5093 583.957 87.928 584.64 84.728 584.64ZM145.347 583.616C142.275 583.616 139.395 583.04 136.707 581.888C134.062 580.736 131.715 579.157 129.667 577.152C127.619 575.104 126.019 572.736 124.867 570.048C123.715 567.36 123.139 564.48 123.139 561.408C123.139 558.336 123.715 555.477 124.867 552.832C126.019 550.144 127.598 547.776 129.603 545.728C131.651 543.68 134.019 542.08 136.707 540.928C139.395 539.776 142.275 539.2 145.347 539.2C148.419 539.2 151.299 539.776 153.987 540.928C156.675 542.08 159.022 543.68 161.027 545.728C163.075 547.733 164.675 550.08 165.827 552.768C166.979 555.456 167.555 558.336 167.555 561.408C167.555 564.48 166.979 567.36 165.827 570.048C164.718 572.736 163.139 575.104 161.091 577.152C159.086 579.157 156.739 580.736 154.051 581.888C151.363 583.04 148.462 583.616 145.347 583.616ZM153.667 566.336C155.032 566.336 156.184 565.845 157.123 564.864C158.104 563.883 158.595 562.731 158.595 561.408C158.595 560.043 158.104 558.891 157.123 557.952C156.184 556.971 155.032 556.48 153.667 556.48C152.344 556.48 151.192 556.971 150.211 557.952C149.23 558.891 148.739 560.043 148.739 561.408C148.739 562.731 149.23 563.883 150.211 564.864C151.192 565.845 152.344 566.336 153.667 566.336ZM197.267 584.364C196.146 584.364 195.184 583.962 194.381 583.159C193.578 582.356 193.176 581.394 193.176 580.273C193.176 579.152 193.578 578.189 194.381 577.386C195.184 576.583 196.146 576.182 197.267 576.182C198.388 576.182 199.35 576.583 200.153 577.386C200.956 578.189 201.358 579.152 201.358 580.273C201.358 581.015 201.169 581.697 200.79 582.318C200.426 582.939 199.934 583.439 199.312 583.818C198.706 584.182 198.025 584.364 197.267 584.364ZM175.057 587.545H178.057C178.057 588.727 178.436 589.674 179.193 590.386C179.936 591.098 180.83 591.455 181.875 591.455C183.284 591.455 184.322 591.098 184.989 590.386C185.64 589.674 185.966 588.727 185.966 587.545H188.966C188.966 589 188.701 590.288 188.17 591.409C187.625 592.53 186.83 593.409 185.784 594.045C184.723 594.682 183.42 595 181.875 595C179.92 595 178.299 594.303 177.011 592.909C175.708 591.515 175.057 589.727 175.057 587.545ZM185.966 587.545H188.966C188.966 588.727 189.299 589.674 189.966 590.386C190.617 591.098 191.648 591.455 193.057 591.455C194.102 591.455 195.004 591.098 195.761 590.386C196.504 589.674 196.875 588.727 196.875 587.545H199.875C199.875 589 199.587 590.288 199.011 591.409C198.42 592.53 197.617 593.409 196.602 594.045C195.572 594.682 194.39 595 193.057 595C191.511 595 190.216 594.682 189.17 594.045C188.11 593.409 187.314 592.53 186.784 591.409C186.239 590.288 185.966 589 185.966 587.545ZM249.347 583.616C246.275 583.616 243.395 583.04 240.707 581.888C238.062 580.736 235.715 579.157 233.667 577.152C231.619 575.104 230.019 572.736 228.867 570.048C227.715 567.36 227.139 564.48 227.139 561.408C227.139 558.336 227.715 555.477 228.867 552.832C230.019 550.144 231.598 547.776 233.603 545.728C235.651 543.68 238.019 542.08 240.707 540.928C243.395 539.776 246.275 539.2 249.347 539.2C252.419 539.2 255.299 539.776 257.987 540.928C260.675 542.08 263.022 543.68 265.027 545.728C267.075 547.733 268.675 550.08 269.827 552.768C270.979 555.456 271.555 558.336 271.555 561.408C271.555 564.48 270.979 567.36 269.827 570.048C268.718 572.736 267.139 575.104 265.091 577.152C263.086 579.157 260.739 580.736 258.051 581.888C255.363 583.04 252.462 583.616 249.347 583.616ZM257.667 566.336C259.032 566.336 260.184 565.845 261.123 564.864C262.104 563.883 262.595 562.731 262.595 561.408C262.595 560.043 262.104 558.891 261.123 557.952C260.184 556.971 259.032 556.48 257.667 556.48C256.344 556.48 255.192 556.971 254.211 557.952C253.23 558.891 252.739 560.043 252.739 561.408C252.739 562.731 253.23 563.883 254.211 564.864C255.192 565.845 256.344 566.336 257.667 566.336ZM310.541 584.64C309.559 584.64 308.599 584.555 307.661 584.384C306.765 584.256 306.039 584.107 305.485 583.936V579.392C305.911 579.563 306.509 579.712 307.277 579.84C308.087 579.968 308.898 580.032 309.708 580.032C311.714 580.032 313.335 579.605 314.573 578.752C315.853 577.899 316.791 576.661 317.389 575.04C317.986 573.376 318.285 571.371 318.285 569.024C318.285 565.355 317.581 562.752 316.173 561.216C314.765 559.68 312.61 558.912 309.708 558.912C307.149 558.912 305.165 559.488 303.757 560.64C302.391 561.749 301.709 563.435 301.709 565.696C301.709 567.488 302.114 568.875 302.925 569.856C303.778 570.837 304.866 571.328 306.189 571.328C306.402 571.328 306.679 571.307 307.021 571.264C307.362 571.221 307.682 571.157 307.981 571.072L308.877 575.36C308.45 575.659 307.895 575.893 307.213 576.064C306.573 576.192 305.89 576.256 305.165 576.256C302.221 576.256 299.981 575.275 298.445 573.312C296.951 571.307 296.205 568.789 296.205 565.76C296.205 561.963 297.378 559.104 299.725 557.184C302.114 555.221 305.442 554.24 309.708 554.24C314.786 554.24 318.434 555.541 320.653 558.144C322.914 560.704 324.045 564.267 324.045 568.832C324.045 571.819 323.575 574.507 322.637 576.896C321.741 579.285 320.29 581.184 318.285 582.592C316.322 583.957 313.741 584.64 310.541 584.64Z" fill="black"/>
<g filter="url(#filter4_f_0_1)">
<path d="M589.447 558.563L634.349 607.006L669.788 655.45L706 770.267L589.447 859L490.5 850.091L428.528 822.409L370.982 778.057L314 681.703L329.233 607.006L428.528 522H504.588L589.447 558.563Z" fill="#15BF35"/>
</g>
<g filter="url(#filter5_f_0_1)">
<path d="M142.5 810L175.215 756.154C211.012 697.235 293.461 689.433 339.674 740.591L359.756 762.822C374.528 779.175 383.666 799.835 385.827 821.766L396 925C396 965.921 359.388 997.129 318.984 990.65L240.76 978.107C229.989 976.38 219.011 976.375 208.237 978.093L134.276 989.884C95.1692 996.118 62.326 960.523 71.6802 922.043C73.2148 915.73 75.847 909.736 79.4567 904.335L142.5 810Z" fill="#B425A6"/>
</g>
<path d="M129.068 850.5L117.818 834.682H127.841L136.159 850.5H129.068ZM143.523 850.5L135.205 834.682H145.432L150.545 850.5H143.523ZM177.372 838.152C180.828 838.152 183.74 838.824 186.108 840.168C188.476 841.448 190.268 843.272 191.484 845.64C192.764 848.008 193.404 850.792 193.404 853.992H187.548C187.548 851.496 187.196 849.384 186.492 847.656C185.788 845.928 184.668 844.616 183.132 843.72C181.596 842.76 179.676 842.28 177.372 842.28C173.788 842.28 171.164 843.304 169.5 845.352C167.836 847.4 167.004 850.28 167.004 853.992H161.148C161.148 850.792 161.724 848.008 162.876 845.64C164.092 843.272 165.884 841.448 168.252 840.168C170.684 838.824 173.724 838.152 177.372 838.152ZM259.967 853.992C259.967 856.36 259.615 858.536 258.911 860.52C258.207 862.44 257.183 864.104 255.839 865.512C254.495 866.92 252.799 868.008 250.751 868.776C248.767 869.48 246.463 869.832 243.839 869.832C241.151 869.832 238.783 869.448 236.734 868.68C234.751 867.912 233.087 866.856 231.743 865.512C230.399 864.104 229.375 862.44 228.671 860.52C228.031 858.536 227.711 856.36 227.711 853.992H233.567C233.567 856.424 233.919 858.536 234.623 860.328C235.391 862.056 236.511 863.4 237.983 864.36C239.519 865.32 241.471 865.8 243.839 865.8C246.207 865.8 248.159 865.32 249.695 864.36C251.231 863.4 252.351 862.056 253.055 860.328C253.759 858.536 254.111 856.424 254.111 853.992H259.967ZM310.497 838.152C313.953 838.152 316.865 838.824 319.233 840.168C321.601 841.448 323.393 843.272 324.609 845.64C325.889 848.008 326.529 850.792 326.529 853.992H320.673C320.673 851.496 320.321 849.384 319.617 847.656C318.913 845.928 317.793 844.616 316.257 843.72C314.721 842.76 312.801 842.28 310.497 842.28C306.913 842.28 304.289 843.304 302.625 845.352C300.961 847.4 300.129 850.28 300.129 853.992H294.273C294.273 850.792 294.849 848.008 296.001 845.64C297.217 843.272 299.009 841.448 301.377 840.168C303.809 838.824 306.849 838.152 310.497 838.152ZM348.256 850.5L337.006 834.682H347.028L355.347 850.5H348.256ZM362.71 850.5L354.392 834.682H364.619L369.733 850.5H362.71Z" fill="black"/>
<path d="M390.912 723.264C385.664 723.264 380.736 722.272 376.128 720.288C371.52 718.368 367.456 715.68 363.936 712.224C360.48 708.704 357.76 704.64 355.776 700.032C353.856 695.424 352.896 690.496 352.896 685.248C352.896 679.936 353.856 675.008 355.776 670.464C357.76 665.856 360.48 661.824 363.936 658.368C367.456 654.848 371.52 652.128 376.128 650.208C380.736 648.224 385.664 647.232 390.912 647.232C396.224 647.232 401.152 648.224 405.696 650.208C410.304 652.128 414.336 654.848 417.792 658.368C421.312 661.824 424.032 665.856 425.952 670.464C427.936 675.008 428.928 679.936 428.928 685.248C428.928 690.496 427.936 695.424 425.952 700.032C424.032 704.64 421.312 708.704 417.792 712.224C414.336 715.68 410.304 718.368 405.696 720.288C401.152 722.272 396.224 723.264 390.912 723.264ZM356.928 685.248H390.912V651.264C386.176 651.264 381.76 652.16 377.664 653.952C373.568 655.68 369.952 658.112 366.816 661.248C363.744 664.32 361.312 667.904 359.52 672C357.792 676.096 356.928 680.512 356.928 685.248ZM433.781 717.216C435.509 717.216 437.141 717.568 438.677 718.272C440.213 718.976 441.589 719.68 442.805 720.384C443.509 720.768 444.533 721.248 445.877 721.824C447.285 722.4 448.597 722.688 449.813 722.688C450.965 722.688 452.117 722.464 453.269 722.016C454.421 721.632 455.669 721.088 457.013 720.384C458.101 719.744 459.317 719.072 460.661 718.368C462.005 717.6 463.701 717.216 465.749 717.216C467.861 717.216 469.557 717.6 470.837 718.368C472.181 719.072 473.461 719.744 474.677 720.384C476.021 721.088 477.269 721.632 478.421 722.016C479.573 722.464 480.725 722.688 481.877 722.688C483.029 722.688 484.309 722.4 485.717 721.824C487.189 721.248 488.245 720.768 488.885 720.384C490.101 719.68 491.445 718.976 492.917 718.272C494.453 717.568 496.085 717.216 497.813 717.216C499.541 717.216 501.141 717.568 502.613 718.272C504.149 718.976 505.525 719.68 506.741 720.384C507.445 720.768 508.501 721.248 509.909 721.824C511.317 722.4 512.597 722.688 513.749 722.688C514.901 722.688 516.053 722.464 517.205 722.016C518.357 721.632 519.605 721.088 520.949 720.384C522.101 719.744 523.349 719.072 524.693 718.368C526.037 717.6 527.733 717.216 529.781 717.216V722.784C528.117 722.784 526.709 723.072 525.557 723.648C524.469 724.224 523.605 724.704 522.965 725.088C521.365 725.92 519.861 726.656 518.453 727.296C517.109 727.936 515.541 728.256 513.749 728.256C511.957 728.256 510.293 727.872 508.757 727.104C507.221 726.336 505.909 725.664 504.821 725.088C503.477 724.384 502.229 723.808 501.077 723.36C499.989 722.976 498.901 722.784 497.813 722.784C496.725 722.784 495.605 722.976 494.453 723.36C493.365 723.808 492.149 724.384 490.805 725.088C489.717 725.728 488.405 726.4 486.869 727.104C485.333 727.872 483.669 728.256 481.877 728.256C480.085 728.256 478.485 727.936 477.077 727.296C475.733 726.656 474.229 725.92 472.565 725.088C471.925 724.704 471.029 724.224 469.877 723.648C468.789 723.072 467.413 722.784 465.749 722.784C464.085 722.784 462.709 723.072 461.621 723.648C460.533 724.224 459.669 724.704 459.029 725.088C457.429 725.92 455.925 726.656 454.517 727.296C453.109 727.936 451.541 728.256 449.813 728.256C448.021 728.256 446.357 727.872 444.821 727.104C443.285 726.336 441.973 725.664 440.885 725.088C439.541 724.384 438.293 723.808 437.141 723.36C436.053 722.976 434.933 722.784 433.781 722.784V717.216ZM572.693 723.264C567.445 723.264 562.517 722.272 557.909 720.288C553.301 718.368 549.237 715.68 545.717 712.224C542.261 708.704 539.541 704.64 537.557 700.032C535.637 695.424 534.677 690.496 534.677 685.248C534.677 679.936 535.637 675.008 537.557 670.464C539.541 665.856 542.261 661.824 545.717 658.368C549.237 654.848 553.301 652.128 557.909 650.208C562.517 648.224 567.445 647.232 572.693 647.232C578.005 647.232 582.933 648.224 587.477 650.208C592.085 652.128 596.117 654.848 599.573 658.368C603.093 661.824 605.813 665.856 607.733 670.464C609.717 675.008 610.709 679.936 610.709 685.248C610.709 690.496 609.717 695.424 607.733 700.032C605.813 704.64 603.093 708.704 599.573 712.224C596.117 715.68 592.085 718.368 587.477 720.288C582.933 722.272 578.005 723.264 572.693 723.264ZM538.709 685.248H572.693V651.264C567.957 651.264 563.541 652.16 559.445 653.952C555.349 655.68 551.733 658.112 548.597 661.248C545.525 664.32 543.093 667.904 541.301 672C539.573 676.096 538.709 680.512 538.709 685.248Z" fill="black"/>
<defs>
<filter id="filter0_i_0_1" x="146" y="0" width="299" height="272" filterUnits="userSpaceOnUse" color-interpolation-filters="sRGB">
<feFlood flood-opacity="0" result="BackgroundImageFix"/>
<feBlend mode="normal" in="SourceGraphic" in2="BackgroundImageFix" result="shape"/>
<feColorMatrix in="SourceAlpha" type="matrix" values="0 0 0 0 0 0 0 0 0 0 0 0 0 0 0 0 0 0 127 0" result="hardAlpha"/>
<feOffset dy="4"/>
<feGaussianBlur stdDeviation="2"/>
<feComposite in2="hardAlpha" operator="arithmetic" k2="-1" k3="1"/>
<feColorMatrix type="matrix" values="0 0 0 0 0.424241 0 0 0 0 0 0 0 0 0 0 0 0 0 0.25 0"/>
<feBlend mode="normal" in2="shape" result="effect1_innerShadow_0_1"/>
</filter>
<filter id="filter1_d_0_1" x="0" y="159" width="326" height="318.5" filterUnits="userSpaceOnUse" color-interpolation-filters="sRGB">
<feFlood flood-opacity="0" result="BackgroundImageFix"/>
<feColorMatrix in="SourceAlpha" type="matrix" values="0 0 0 0 0 0 0 0 0 0 0 0 0 0 0 0 0 0 127 0" result="hardAlpha"/>
<feOffset dx="-20"/>
<feGaussianBlur stdDeviation="8"/>
<feComposite in2="hardAlpha" operator="out"/>
<feColorMatrix type="matrix" values="0 0 0 0 0 0 0 0 0 0 0 0 0 0 0 0 0 0 0.25 0"/>
<feBlend mode="normal" in2="BackgroundImageFix" result="effect1_dropShadow_0_1"/>
<feBlend mode="normal" in="SourceGraphic" in2="effect1_dropShadow_0_1" result="shape"/>
</filter>
<filter id="filter2_i_0_1" x="290" y="284" width="358.5" height="298" filterUnits="userSpaceOnUse" color-interpolation-filters="sRGB">
<feFlood flood-opacity="0" result="BackgroundImageFix"/>
<feBlend mode="normal" in="SourceGraphic" in2="BackgroundImageFix" result="shape"/>
<feColorMatrix in="SourceAlpha" type="matrix" values="0 0 0 0 0 0 0 0 0 0 0 0 0 0 0 0 0 0 127 0" result="hardAlpha"/>
<feOffset dy="4"/>
<feGaussianBlur stdDeviation="2"/>
<feComposite in2="hardAlpha" operator="arithmetic" k2="-1" k3="1"/>
<feColorMatrix type="matrix" values="0 0 0 0 0 0 0 0 0 0 0 0 0 0 0 0 0 0 0.25 0"/>
<feBlend mode="normal" in2="shape" result="effect1_innerShadow_0_1"/>
</filter>
<filter id="filter3_f_0_1" x="11" y="431" width="359.447" height="278.5" filterUnits="userSpaceOnUse" color-interpolation-filters="sRGB">
<feFlood flood-opacity="0" result="BackgroundImageFix"/>
<feBlend mode="normal" in="SourceGraphic" in2="BackgroundImageFix" result="shape"/>
<feGaussianBlur stdDeviation="2" result="effect1_foregroundBlur_0_1"/>
</filter>
<filter id="filter4_f_0_1" x="310" y="518" width="400" height="345" filterUnits="userSpaceOnUse" color-interpolation-filters="sRGB">
<feFlood flood-opacity="0" result="BackgroundImageFix"/>
<feBlend mode="normal" in="SourceGraphic" in2="BackgroundImageFix" result="shape"/>
<feGaussianBlur stdDeviation="2" result="effect1_foregroundBlur_0_1"/>
</filter>
<filter id="filter5_f_0_1" x="66.0722" y="702.63" width="333.928" height="292.875" filterUnits="userSpaceOnUse" color-interpolation-filters="sRGB">
<feFlood flood-opacity="0" result="BackgroundImageFix"/>
<feBlend mode="normal" in="SourceGraphic" in2="BackgroundImageFix" result="shape"/>
<feGaussianBlur stdDeviation="2" result="effect1_foregroundBlur_0_1"/>
</filter>
</defs>
</svg>
