<svg width="321" height="545" viewBox="0 0 321 545" fill="none" xmlns="http://www.w3.org/2000/svg">
<g filter="url(#filter0_i_0_1)">
<path d="M254 136.985C254 171.675 211.154 180 175.876 180C140.598 180 112 151.878 112 117.188C112 82.4986 159.358 49 194.635 49C229.913 49 254 102.295 254 136.985Z" fill="#E05900"/>
</g>
<g filter="url(#filter1_i_0_1)">
<g filter="url(#filter2_d_0_1)">
<path d="M148.977 199.764C145.104 217.588 209.269 295.929 96.6471 271.456C-23.0855 245.439 73.5395 202.037 77.4125 184.214C81.2856 166.39 101.149 153.671 121.291 158.048C141.433 162.425 152.85 181.941 148.977 199.764Z" fill="#D9D9D9"/>
</g>
</g>
<path d="M102.604 187.106C101.868 186.885 101.22 186.54 100.659 186.071C100.109 185.605 99.6602 185.058 99.314 184.431C98.9709 183.793 98.7581 183.111 98.6756 182.384C98.5931 181.658 98.6623 180.927 98.8832 180.191C99.1041 179.456 99.4476 178.813 99.9136 178.262C100.383 177.702 100.931 177.248 101.558 176.902C102.196 176.559 102.878 176.346 103.605 176.264C104.331 176.181 105.062 176.25 105.798 176.471C106.533 176.692 107.181 177.037 107.742 177.506C108.303 177.975 108.75 178.527 109.082 179.162C109.429 179.789 109.643 180.466 109.725 181.193C109.808 181.919 109.739 182.65 109.518 183.386C109.297 184.121 108.952 184.769 108.483 185.33C108.024 185.894 107.476 186.347 106.838 186.69C106.214 187.026 105.538 187.235 104.812 187.318C104.085 187.401 103.349 187.33 102.604 187.106ZM105.838 183.567C106.165 183.665 106.476 183.63 106.772 183.463C107.077 183.298 107.277 183.058 107.373 182.741C107.471 182.414 107.436 182.103 107.269 181.808C107.114 181.505 106.874 181.305 106.547 181.207C106.23 181.112 105.919 181.146 105.614 181.311C105.311 181.465 105.111 181.706 105.013 182.032C104.918 182.349 104.952 182.66 105.117 182.966C105.281 183.271 105.522 183.472 105.838 183.567ZM114.981 191.019C114.713 190.938 114.511 190.773 114.377 190.523C114.242 190.273 114.215 190.013 114.296 189.745C114.377 189.476 114.542 189.275 114.792 189.14C115.042 189.006 115.301 188.979 115.57 189.06C115.838 189.14 116.04 189.305 116.174 189.555C116.309 189.805 116.336 190.065 116.255 190.333C116.201 190.511 116.107 190.661 115.972 190.782C115.84 190.905 115.686 190.989 115.51 191.035C115.339 191.078 115.163 191.073 114.981 191.019ZM109.434 190.183L110.153 190.399C110.068 190.682 110.09 190.936 110.221 191.161C110.347 191.385 110.536 191.534 110.786 191.609C111.123 191.711 111.397 191.7 111.608 191.578C111.815 191.454 111.962 191.251 112.047 190.968L112.765 191.183C112.66 191.532 112.504 191.821 112.297 192.051C112.085 192.281 111.832 192.434 111.536 192.511C111.236 192.587 110.901 192.569 110.531 192.458C110.063 192.318 109.725 192.034 109.517 191.608C109.305 191.181 109.278 190.706 109.434 190.183ZM112.047 190.968L112.765 191.183C112.68 191.466 112.692 191.717 112.8 191.936C112.905 192.153 113.126 192.312 113.463 192.414C113.714 192.489 113.955 192.468 114.188 192.352C114.417 192.235 114.574 192.035 114.659 191.752L115.377 191.968C115.272 192.316 115.111 192.604 114.892 192.831C114.67 193.057 114.415 193.209 114.126 193.289C113.833 193.367 113.527 193.358 113.208 193.262C112.838 193.151 112.551 192.982 112.346 192.754C112.138 192.526 112.011 192.258 111.965 191.952C111.915 191.644 111.942 191.316 112.047 190.968ZM127.505 194.585C126.769 194.364 126.121 194.019 125.56 193.55C125.01 193.084 124.561 192.537 124.215 191.909C123.872 191.272 123.659 190.59 123.577 189.863C123.494 189.137 123.563 188.406 123.784 187.67C124.005 186.935 124.349 186.292 124.815 185.741C125.284 185.18 125.832 184.727 126.46 184.381C127.097 184.038 127.779 183.825 128.506 183.742C129.232 183.66 129.963 183.729 130.699 183.95C131.434 184.171 132.082 184.516 132.643 184.985C133.204 185.454 133.651 186.006 133.984 186.641C134.33 187.268 134.544 187.945 134.627 188.671C134.709 189.398 134.64 190.129 134.419 190.864C134.198 191.6 133.853 192.248 133.384 192.809C132.925 193.373 132.377 193.826 131.739 194.169C131.115 194.505 130.439 194.714 129.713 194.797C128.987 194.879 128.25 194.809 127.505 194.585ZM130.739 191.046C131.066 191.144 131.377 191.109 131.673 190.942C131.978 190.777 132.179 190.537 132.274 190.22C132.372 189.893 132.337 189.582 132.17 189.287C132.016 188.984 131.775 188.784 131.448 188.686C131.131 188.591 130.82 188.625 130.515 188.79C130.212 188.944 130.012 189.184 129.914 189.511C129.819 189.828 129.853 190.139 130.018 190.445C130.182 190.75 130.423 190.95 130.739 191.046Z" fill="#262626"/>
<path d="M183.734 102.824C181.904 102.242 180.298 101.353 178.915 100.158C177.558 98.971 176.459 97.5863 175.619 96.004C174.787 94.3963 174.282 92.6829 174.105 90.8637C173.928 89.0445 174.131 87.22 174.713 85.3903C175.294 83.5606 176.179 81.967 177.366 80.6096C178.561 79.2267 179.95 78.1153 181.532 77.2753C183.14 76.4433 184.853 75.9388 186.672 75.7617C188.492 75.5846 190.316 75.787 192.146 76.3688C193.976 76.9506 195.582 77.8391 196.965 79.0343C198.348 80.2296 199.442 81.627 200.249 83.2266C201.089 84.8089 201.597 86.5096 201.774 88.3288C201.952 90.148 201.749 91.9724 201.167 93.8021C200.586 95.6319 199.697 97.2382 198.502 98.621C197.332 100.012 195.943 101.123 194.336 101.955C192.761 102.77 191.065 103.266 189.245 103.443C187.426 103.62 185.589 103.414 183.734 102.824ZM191.962 94.1071C192.775 94.3657 193.554 94.2916 194.299 93.8849C195.07 93.4863 195.58 92.893 195.831 92.1052C196.089 91.292 196.015 90.5129 195.608 89.768C195.235 89.0057 194.642 88.4953 193.829 88.2367C193.041 87.9862 192.262 88.0603 191.492 88.459C190.729 88.8322 190.219 89.4254 189.96 90.2386C189.71 91.0264 189.784 91.8055 190.182 92.5758C190.581 93.3462 191.174 93.8566 191.962 94.1071ZM224.794 115.88C222.964 115.298 221.358 114.409 219.975 113.214C218.618 112.027 217.519 110.642 216.679 109.06C215.847 107.452 215.343 105.739 215.166 103.92C214.989 102.1 215.191 100.276 215.773 98.4462C216.355 96.6165 217.239 95.0229 218.426 93.6655C219.621 92.2827 221.01 91.1712 222.592 90.3312C224.2 89.4992 225.913 88.9947 227.733 88.8176C229.552 88.6406 231.376 88.8429 233.206 89.4247C235.036 90.0065 236.642 90.895 238.025 92.0903C239.408 93.2855 240.502 94.6829 241.309 96.2825C242.149 97.8648 242.658 99.5655 242.835 101.385C243.012 103.204 242.809 105.028 242.228 106.858C241.646 108.688 240.757 110.294 239.562 111.677C238.392 113.068 237.003 114.179 235.396 115.011C233.822 115.826 232.125 116.322 230.306 116.499C228.487 116.676 226.649 116.469 224.794 115.88ZM233.022 107.163C233.836 107.422 234.615 107.348 235.36 106.941C236.13 106.542 236.64 105.949 236.891 105.161C237.149 104.348 237.075 103.569 236.669 102.824C236.295 102.062 235.702 101.551 234.889 101.293C234.101 101.042 233.322 101.116 232.552 101.515C231.789 101.888 231.279 102.481 231.02 103.295C230.77 104.082 230.844 104.861 231.243 105.632C231.641 106.402 232.235 106.913 233.022 107.163ZM171.218 149.464L170.271 152.442L152.944 146.932L153.891 143.954L171.218 149.464Z" fill="black"/>
<g filter="url(#filter3_i_0_1)">
<path d="M299 275.653C299 305.615 247.604 352 212.276 352C176.948 352 152 313.309 152 283.347C152 253.385 186.36 236 221.688 236C257.016 236 299 245.691 299 275.653Z" fill="#3F8FE5"/>
</g>
<path d="M199.608 285.783C197.652 285.565 195.857 284.991 194.222 284.06C192.584 283.153 191.181 281.983 190.013 280.548C188.871 279.093 188.026 277.465 187.478 275.666C186.954 273.869 186.8 271.992 187.018 270.036C187.239 268.056 187.801 266.26 188.705 264.646C189.636 263.011 190.817 261.621 192.249 260.477C193.707 259.311 195.334 258.466 197.132 257.942C198.931 257.394 200.809 257.228 202.765 257.446C204.745 257.667 206.54 258.241 208.151 259.169C209.789 260.076 211.179 261.257 212.321 262.713C213.489 264.147 214.335 265.763 214.86 267.56C215.41 269.336 215.575 271.213 215.355 273.193C215.137 275.149 214.563 276.944 213.632 278.579C212.725 280.217 211.543 281.619 210.085 282.785C208.653 283.929 207.039 284.763 205.242 285.288C203.466 285.838 201.588 286.004 199.608 285.783ZM188.521 270.204L201.187 271.615L202.598 258.949C200.833 258.752 199.15 258.903 197.549 259.401C195.95 259.875 194.502 260.631 193.203 261.67C191.93 262.687 190.875 263.922 190.037 265.374C189.223 266.829 188.718 268.439 188.521 270.204ZM224.415 287.315C220.122 286.837 217.848 283.831 218.323 279.573L218.801 275.28L221.091 275.535L220.7 279.041C220.242 283.155 221.537 284.857 224.614 285.2C227.763 285.551 229.334 284.132 229.788 280.053L230.179 276.547L232.469 276.802L232.078 280.308C231.619 284.423 232.915 286.125 235.992 286.468C239.105 286.815 240.711 285.4 241.166 281.321L241.556 277.815L243.846 278.07L243.368 282.363C242.885 286.692 240.05 289.057 235.793 288.583C233.181 288.292 231.384 287.186 230.371 285.226C229.023 286.923 227.027 287.606 224.415 287.315ZM260.264 292.541C258.308 292.323 256.513 291.748 254.878 290.818C253.24 289.911 251.837 288.74 250.669 287.306C249.527 285.851 248.682 284.223 248.134 282.423C247.609 280.626 247.456 278.75 247.674 276.794C247.895 274.814 248.457 273.017 249.361 271.403C250.292 269.768 251.473 268.379 252.905 267.234C254.363 266.068 255.99 265.223 257.788 264.699C259.587 264.151 261.465 263.986 263.421 264.204C265.401 264.424 267.196 264.999 268.807 265.927C270.445 266.834 271.835 268.015 272.977 269.47C274.145 270.904 274.991 272.52 275.516 274.317C276.066 276.093 276.231 277.971 276.011 279.951C275.793 281.907 275.219 283.702 274.288 285.337C273.381 286.975 272.199 288.376 270.741 289.542C269.309 290.687 267.695 291.521 265.898 292.045C264.122 292.596 262.244 292.761 260.264 292.541ZM249.177 276.961L261.843 278.372L263.254 265.707C261.489 265.51 259.806 265.661 258.205 266.158C256.606 266.632 255.158 267.389 253.859 268.427C252.586 269.444 251.531 270.679 250.693 272.131C249.879 273.586 249.374 275.196 249.177 276.961Z" fill="black"/>
<g filter="url(#filter4_i_0_1)">
<path d="M109.807 290L162.314 326.643L169.157 357.07L176 387.497L93.2506 408L28 384.007L45.1325 322.499L109.807 290Z" fill="#EC5477"/>
</g>
<path d="M63.0418 356.639C62.7353 356.649 62.4346 356.633 62.1396 356.589C61.8584 356.559 61.6303 356.52 61.4552 356.473L61.4067 355.054C61.5418 355.102 61.7299 355.143 61.9712 355.174C62.2257 355.206 62.4796 355.217 62.7328 355.208C63.3591 355.187 63.8609 355.036 64.2382 354.757C64.6289 354.477 64.9088 354.08 65.0781 353.567C65.2469 353.041 65.3188 352.412 65.2937 351.679C65.2545 350.533 65.0069 349.728 64.5508 349.263C64.0946 348.798 63.4135 348.581 62.5073 348.612C61.7078 348.64 61.0943 348.841 60.6669 349.215C60.2523 349.577 60.0571 350.11 60.0812 350.816C60.1003 351.376 60.2417 351.805 60.5054 352.103C60.7824 352.4 61.1274 352.542 61.5405 352.528C61.6071 352.525 61.6935 352.516 61.7997 352.499C61.9058 352.482 62.0051 352.458 62.0975 352.428L62.4231 353.758C62.293 353.856 62.1223 353.935 61.9109 353.996C61.7124 354.043 61.4998 354.07 61.2733 354.078C60.3538 354.109 59.6438 353.826 59.1431 353.23C58.6553 352.619 58.3952 351.841 58.3629 350.895C58.3224 349.709 58.6583 348.804 59.3707 348.179C60.096 347.541 61.1249 347.199 62.4575 347.153C64.0432 347.099 65.1964 347.466 65.9171 348.256C66.6507 349.031 67.0419 350.132 67.0906 351.557C67.1225 352.49 67.0046 353.335 66.7369 354.091C66.4826 354.847 66.0498 355.455 65.4385 355.916C64.8401 356.364 64.0412 356.605 63.0418 356.639ZM81.9633 355.672C81.0038 355.705 80.0982 355.555 79.2464 355.224C78.4079 354.893 77.6582 354.425 76.9971 353.82C76.3356 353.203 75.8107 352.48 75.4222 351.653C75.0337 350.826 74.8231 349.932 74.7903 348.973C74.7575 348.013 74.9068 347.114 75.2384 346.276C75.5695 345.424 76.0373 344.668 76.6417 344.007C77.2595 343.345 77.982 342.82 78.8092 342.432C79.6364 342.043 80.5297 341.833 81.4892 341.8C82.4486 341.767 83.3542 341.916 84.206 342.247C85.0578 342.578 85.8078 343.053 86.456 343.671C87.117 344.276 87.6418 344.992 88.0302 345.819C88.4187 346.646 88.6294 347.539 88.6622 348.499C88.695 349.458 88.5458 350.364 88.2147 351.216C87.8969 352.067 87.4292 352.823 86.8114 353.485C86.2065 354.133 85.4904 354.651 84.6632 355.039C83.836 355.428 82.936 355.639 81.9633 355.672ZM84.3773 350.186C84.8037 350.172 85.1583 350.006 85.441 349.69C85.737 349.373 85.8779 349.008 85.8638 348.594C85.8492 348.168 85.6837 347.813 85.3672 347.531C85.0635 347.234 84.6985 347.093 84.2721 347.108C83.859 347.122 83.5044 347.288 83.2084 347.605C82.912 347.908 82.771 348.273 82.7856 348.7C82.7997 349.113 82.9653 349.467 83.2822 349.763C83.5992 350.059 83.9642 350.2 84.3773 350.186ZM98.1868 355.351C97.8366 355.363 97.5318 355.248 97.2725 355.006C97.0131 354.763 96.8774 354.467 96.8655 354.117C96.8535 353.767 96.9686 353.462 97.2109 353.203C97.4531 352.943 97.7493 352.808 98.0995 352.796C98.4496 352.784 98.7544 352.899 99.0138 353.141C99.2732 353.383 99.4088 353.68 99.4208 354.03C99.4287 354.262 99.3768 354.477 99.2652 354.675C99.1582 354.873 99.0098 355.034 98.8198 355.159C98.6344 355.279 98.4234 355.343 98.1868 355.351ZM91.2841 356.582L92.2211 356.55C92.2337 356.919 92.3621 357.211 92.6063 357.425C92.8458 357.639 93.1288 357.741 93.4553 357.73C93.8954 357.715 94.2157 357.593 94.4163 357.363C94.6122 357.134 94.7038 356.835 94.6912 356.465L95.6282 356.433C95.6437 356.888 95.5746 357.293 95.421 357.649C95.2626 358.005 95.0235 358.288 94.7038 358.497C94.3794 358.708 93.9758 358.821 93.4931 358.837C92.8827 358.858 92.3689 358.658 91.9518 358.236C91.53 357.815 91.3074 357.263 91.2841 356.582ZM94.6912 356.465L95.6282 356.433C95.6408 356.803 95.755 357.095 95.9708 357.31C96.1819 357.525 96.5075 357.626 96.9476 357.611C97.2741 357.599 97.5518 357.479 97.7808 357.248C98.0051 357.018 98.1109 356.718 98.0983 356.349L99.0353 356.317C99.0508 356.771 98.9746 357.177 98.8068 357.533C98.6342 357.889 98.3928 358.172 98.0825 358.382C97.7675 358.592 97.4018 358.704 96.9854 358.718C96.5027 358.734 96.0947 358.649 95.7614 358.461C95.4234 358.274 95.1656 358.008 94.988 357.663C94.8057 357.319 94.7067 356.92 94.6912 356.465ZM114.444 354.562C113.485 354.594 112.579 354.445 111.727 354.114C110.889 353.783 110.139 353.315 109.478 352.71C108.817 352.092 108.292 351.37 107.903 350.543C107.515 349.716 107.304 348.822 107.271 347.863C107.239 346.903 107.388 346.004 107.719 345.166C108.051 344.314 108.518 343.558 109.123 342.897C109.741 342.235 110.463 341.71 111.29 341.322C112.117 340.933 113.011 340.723 113.97 340.69C114.93 340.657 115.835 340.806 116.687 341.137C117.539 341.468 118.289 341.943 118.937 342.561C119.598 343.166 120.123 343.881 120.511 344.709C120.9 345.536 121.11 346.429 121.143 347.389C121.176 348.348 121.027 349.254 120.696 350.106C120.378 350.957 119.91 351.713 119.292 352.375C118.688 353.022 117.971 353.541 117.144 353.929C116.317 354.318 115.417 354.528 114.444 354.562ZM116.858 349.076C117.285 349.061 117.639 348.896 117.922 348.579C118.218 348.262 118.359 347.897 118.345 347.484C118.33 347.058 118.165 346.703 117.848 346.421C117.545 346.124 117.18 345.983 116.753 345.998C116.34 346.012 115.985 346.177 115.689 346.494C115.393 346.798 115.252 347.163 115.267 347.59C115.281 348.003 115.446 348.357 115.763 348.653C116.08 348.949 116.445 349.09 116.858 349.076ZM133.567 354.228C133.261 354.239 132.96 354.222 132.665 354.179C132.384 354.149 132.156 354.11 131.98 354.062L131.932 352.643C132.067 352.692 132.255 352.732 132.496 352.764C132.751 352.795 133.005 352.807 133.258 352.798C133.884 352.777 134.386 352.626 134.763 352.346C135.154 352.066 135.434 351.67 135.603 351.157C135.772 350.631 135.844 350.001 135.819 349.268C135.78 348.122 135.532 347.317 135.076 346.852C134.62 346.388 133.939 346.171 133.033 346.202C132.233 346.229 131.62 346.43 131.192 346.805C130.778 347.166 130.582 347.7 130.606 348.406C130.626 348.966 130.767 349.394 131.031 349.692C131.308 349.99 131.653 350.131 132.066 350.117C132.132 350.115 132.219 350.105 132.325 350.088C132.431 350.071 132.53 350.048 132.623 350.018L132.948 351.348C132.818 351.446 132.647 351.525 132.436 351.585C132.238 351.632 132.025 351.659 131.799 351.667C130.879 351.699 130.169 351.416 129.668 350.819C129.181 350.209 128.92 349.431 128.888 348.485C128.848 347.299 129.184 346.393 129.896 345.769C130.621 345.13 131.65 344.788 132.983 344.743C134.568 344.688 135.722 345.056 136.442 345.845C137.176 346.621 137.567 347.721 137.616 349.147C137.648 350.08 137.53 350.924 137.262 351.681C137.008 352.436 136.575 353.045 135.964 353.506C135.365 353.953 134.566 354.194 133.567 354.228Z" fill="black"/>
<g filter="url(#filter5_i_0_1)">
<path d="M265.914 373.756L283.669 393.305L297.681 412.855L312 459.191L265.914 495L226.79 491.405L202.285 480.233L179.531 462.334L157 423.45L163.023 393.305L202.285 359H232.36L265.914 373.756Z" fill="#15BF35"/>
</g>
<g filter="url(#filter6_i_0_1)">
<path d="M56.4666 466.512L71.1823 447.285C92.9477 418.847 135.023 416.715 159.551 442.808V442.808C168.271 452.084 173.699 463.971 174.998 476.636L179 515.663V515.663C179 533.19 163.375 546.592 146.052 543.923L111.604 538.615C105.717 537.708 99.727 537.705 93.8397 538.607L56.1248 544.385C40.2814 546.812 26 534.552 26 518.524V518.524C26 513.183 27.6344 507.97 30.6837 503.586L56.4666 466.512Z" fill="#B425A6"/>
</g>
<path d="M80.3577 470.721C82.0653 470.456 83.5556 470.565 84.8285 471.048C86.0966 471.499 87.1217 472.263 87.9039 473.34C88.7177 474.412 89.2471 475.738 89.4922 477.319L86.5987 477.768C86.4076 476.535 86.0719 475.518 85.5917 474.718C85.1115 473.918 84.4577 473.356 83.6301 473.031C82.7976 472.674 81.8122 472.584 80.6738 472.76C78.903 473.035 77.6849 473.742 77.0195 474.881C76.3542 476.02 76.1636 477.507 76.4479 479.341L73.5545 479.79C73.3094 478.209 73.3808 476.789 73.7687 475.531C74.1881 474.268 74.9339 473.229 76.0059 472.415C77.1046 471.565 78.5552 471 80.3577 470.721ZM122.381 472.222C122.562 473.392 122.555 474.494 122.359 475.528C122.158 476.531 121.78 477.431 121.223 478.23C120.667 479.029 119.912 479.696 118.959 480.232C118.033 480.732 116.921 481.083 115.625 481.284C114.297 481.489 113.097 481.481 112.027 481.258C110.988 481.031 110.084 480.637 109.317 480.075C108.546 479.483 107.912 478.739 107.417 477.844C106.949 476.913 106.624 475.862 106.443 474.692L109.336 474.244C109.523 475.445 109.858 476.462 110.343 477.293C110.855 478.088 111.512 478.667 112.312 479.028C113.145 479.385 114.146 479.473 115.316 479.291C116.486 479.11 117.414 478.723 118.099 478.131C118.785 477.539 119.235 476.79 119.451 475.882C119.661 474.942 119.674 473.872 119.487 472.67L122.381 472.222ZM146.135 460.526C147.842 460.261 149.333 460.37 150.606 460.853C151.874 461.304 152.899 462.068 153.681 463.145C154.495 464.217 155.024 465.543 155.269 467.124L152.376 467.573C152.185 466.339 151.849 465.323 151.369 464.523C150.889 463.723 150.235 463.161 149.407 462.836C148.575 462.479 147.589 462.389 146.451 462.565C144.68 462.84 143.462 463.547 142.797 464.686C142.131 465.825 141.941 467.312 142.225 469.146L139.332 469.595C139.086 468.013 139.158 466.594 139.546 465.335C139.965 464.072 140.711 463.034 141.783 462.22C142.882 461.37 144.332 460.805 146.135 460.526Z" fill="black"/>
<path d="M190.84 421.304C189.126 420.954 187.583 420.3 186.211 419.344C184.834 418.409 183.687 417.26 182.768 415.896C181.875 414.516 181.258 413.007 180.918 411.369C180.599 409.736 180.615 408.063 180.966 406.349C181.321 404.614 181.964 403.069 182.894 401.713C183.85 400.341 185.008 399.206 186.367 398.309C187.752 397.394 189.261 396.778 190.894 396.459C192.532 396.119 194.207 396.124 195.921 396.475C197.656 396.83 199.199 397.483 200.55 398.435C201.927 399.37 203.062 400.527 203.955 401.908C204.874 403.272 205.492 404.77 205.811 406.403C206.156 408.02 206.15 409.696 205.795 411.43C205.444 413.144 204.791 414.687 203.835 416.059C202.9 417.436 201.74 418.581 200.356 419.495C198.996 420.393 197.5 421.001 195.867 421.32C194.25 421.665 192.575 421.659 190.84 421.304ZM182.283 406.618L193.38 408.89L195.652 397.792C194.105 397.475 192.603 397.473 191.146 397.784C189.693 398.075 188.349 398.627 187.116 399.442C185.907 400.24 184.873 401.247 184.014 402.465C183.176 403.687 182.599 405.072 182.283 406.618ZM205.244 422.194C205.808 422.31 206.317 422.534 206.772 422.866C207.226 423.199 207.629 423.521 207.979 423.832C208.183 424.004 208.485 424.23 208.886 424.507C209.307 424.79 209.716 424.971 210.113 425.053C210.49 425.13 210.881 425.133 211.287 425.064C211.689 425.016 212.133 424.922 212.619 424.781C213.017 424.645 213.459 424.507 213.945 424.367C214.435 424.206 215.014 424.194 215.683 424.331C216.373 424.472 216.901 424.711 217.268 425.047C217.66 425.367 218.033 425.672 218.387 425.962C218.779 426.282 219.15 426.543 219.501 426.745C219.847 426.968 220.208 427.119 220.584 427.196C220.961 427.273 221.398 427.264 221.896 427.17C222.415 427.08 222.792 426.994 223.027 426.911C223.471 426.763 223.957 426.623 224.485 426.491C225.033 426.364 225.59 426.358 226.154 426.474C226.719 426.589 227.218 426.811 227.651 427.139C228.106 427.472 228.508 427.794 228.858 428.105C229.062 428.277 229.375 428.505 229.796 428.787C230.218 429.069 230.616 429.249 230.993 429.326C231.369 429.403 231.76 429.406 232.166 429.337C232.568 429.289 233.012 429.194 233.498 429.054C233.917 428.922 234.369 428.786 234.855 428.646C235.346 428.485 235.925 428.473 236.594 428.61L236.222 430.428C235.678 430.317 235.199 430.317 234.785 430.428C234.391 430.544 234.077 430.643 233.842 430.725C233.264 430.89 232.723 431.03 232.221 431.145C231.739 431.264 231.206 431.264 230.621 431.144C230.035 431.024 229.518 430.788 229.067 430.434C228.617 430.081 228.234 429.773 227.917 429.513C227.525 429.193 227.156 428.921 226.81 428.698C226.48 428.5 226.137 428.365 225.782 428.292C225.427 428.219 225.048 428.207 224.646 428.255C224.261 428.329 223.826 428.436 223.34 428.576C222.942 428.712 222.468 428.844 221.919 428.971C221.367 429.119 220.797 429.134 220.212 429.014C219.627 428.894 219.126 428.683 218.709 428.38C218.313 428.081 217.871 427.74 217.383 427.357C217.2 427.189 216.939 426.972 216.601 426.707C216.285 426.446 215.855 426.26 215.311 426.149C214.768 426.038 214.299 426.04 213.905 426.155C213.512 426.271 213.197 426.37 212.963 426.452C212.385 426.617 211.844 426.757 211.342 426.872C210.839 426.987 210.306 426.986 209.741 426.871C209.156 426.751 208.638 426.515 208.188 426.161C207.738 425.808 207.354 425.501 207.037 425.24C206.646 424.92 206.277 424.649 205.93 424.425C205.601 424.227 205.248 424.09 204.872 424.013L205.244 422.194ZM250.203 433.453C248.489 433.102 246.946 432.449 245.574 431.493C244.198 430.558 243.05 429.409 242.132 428.045C241.238 426.664 240.622 425.155 240.282 423.518C239.963 421.885 239.978 420.211 240.329 418.498C240.684 416.763 241.327 415.218 242.258 413.862C243.214 412.49 244.371 411.355 245.731 410.457C247.116 409.543 248.625 408.926 250.258 408.607C251.895 408.267 253.571 408.273 255.285 408.624C257.019 408.979 258.562 409.632 259.914 410.583C261.29 411.518 262.425 412.676 263.318 414.057C264.237 415.42 264.856 416.919 265.175 418.552C265.519 420.169 265.514 421.844 265.159 423.579C264.808 425.293 264.155 426.836 263.199 428.208C262.264 429.584 261.104 430.73 259.719 431.644C258.36 432.542 256.863 433.15 255.23 433.469C253.614 433.813 251.938 433.808 250.203 433.453ZM241.646 418.767L252.744 421.038L255.015 409.94C253.468 409.624 251.966 409.621 250.509 409.933C249.056 410.223 247.713 410.776 246.479 411.59C245.27 412.388 244.237 413.396 243.378 414.614C242.54 415.836 241.962 417.22 241.646 418.767Z" fill="black"/>
<defs>
<filter id="filter0_i_0_1" x="112" y="49" width="146" height="135" filterUnits="userSpaceOnUse" color-interpolation-filters="sRGB">
<feFlood flood-opacity="0" result="BackgroundImageFix"/>
<feBlend mode="normal" in="SourceGraphic" in2="BackgroundImageFix" result="shape"/>
<feColorMatrix in="SourceAlpha" type="matrix" values="0 0 0 0 0 0 0 0 0 0 0 0 0 0 0 0 0 0 127 0" result="hardAlpha"/>
<feOffset dx="27" dy="4"/>
<feGaussianBlur stdDeviation="2"/>
<feComposite in2="hardAlpha" operator="arithmetic" k2="-1" k3="1"/>
<feColorMatrix type="matrix" values="0 0 0 0 0 0 0 0 0 0 0 0 0 0 0 0 0 0 0.25 0"/>
<feBlend mode="normal" in2="shape" result="effect1_innerShadow_0_1"/>
</filter>
<filter id="filter1_i_0_1" x="36.9166" y="157.18" width="130.793" height="118.969" filterUnits="userSpaceOnUse" color-interpolation-filters="sRGB">
<feFlood flood-opacity="0" result="BackgroundImageFix"/>
<feBlend mode="normal" in="SourceGraphic" in2="BackgroundImageFix" result="shape"/>
<feColorMatrix in="SourceAlpha" type="matrix" values="0 0 0 0 0 0 0 0 0 0 0 0 0 0 0 0 0 0 127 0" result="hardAlpha"/>
<feOffset dx="21"/>
<feGaussianBlur stdDeviation="2"/>
<feComposite in2="hardAlpha" operator="arithmetic" k2="-1" k3="1"/>
<feColorMatrix type="matrix" values="0 0 0 0 0 0 0 0 0 0 0 0 0 0 0 0 0 0 0.25 0"/>
<feBlend mode="plus-darker" in2="shape" result="effect1_innerShadow_0_1"/>
</filter>
<filter id="filter2_d_0_1" x="0.91658" y="141.18" width="162.793" height="150.969" filterUnits="userSpaceOnUse" color-interpolation-filters="sRGB">
<feFlood flood-opacity="0" result="BackgroundImageFix"/>
<feColorMatrix in="SourceAlpha" type="matrix" values="0 0 0 0 0 0 0 0 0 0 0 0 0 0 0 0 0 0 127 0" result="hardAlpha"/>
<feOffset dx="-20"/>
<feGaussianBlur stdDeviation="8"/>
<feComposite in2="hardAlpha" operator="out"/>
<feColorMatrix type="matrix" values="0 0 0 0 0 0 0 0 0 0 0 0 0 0 0 0 0 0 0.25 0"/>
<feBlend mode="normal" in2="BackgroundImageFix" result="effect1_dropShadow_0_1"/>
<feBlend mode="normal" in="SourceGraphic" in2="effect1_dropShadow_0_1" result="shape"/>
</filter>
<filter id="filter3_i_0_1" x="148" y="236" width="151" height="116" filterUnits="userSpaceOnUse" color-interpolation-filters="sRGB">
<feFlood flood-opacity="0" result="BackgroundImageFix"/>
<feBlend mode="normal" in="SourceGraphic" in2="BackgroundImageFix" result="shape"/>
<feColorMatrix in="SourceAlpha" type="matrix" values="0 0 0 0 0 0 0 0 0 0 0 0 0 0 0 0 0 0 127 0" result="hardAlpha"/>
<feOffset dx="-23"/>
<feGaussianBlur stdDeviation="2"/>
<feComposite in2="hardAlpha" operator="arithmetic" k2="-1" k3="1"/>
<feColorMatrix type="matrix" values="0 0 0 0 0 0 0 0 0 0 0 0 0 0 0 0 0 0 0.25 0"/>
<feBlend mode="normal" in2="shape" result="effect1_innerShadow_0_1"/>
</filter>
<filter id="filter4_i_0_1" x="28" y="290" width="152" height="118" filterUnits="userSpaceOnUse" color-interpolation-filters="sRGB">
<feFlood flood-opacity="0" result="BackgroundImageFix"/>
<feBlend mode="normal" in="SourceGraphic" in2="BackgroundImageFix" result="shape"/>
<feColorMatrix in="SourceAlpha" type="matrix" values="0 0 0 0 0 0 0 0 0 0 0 0 0 0 0 0 0 0 127 0" result="hardAlpha"/>
<feOffset dx="18"/>
<feGaussianBlur stdDeviation="2"/>
<feComposite in2="hardAlpha" operator="arithmetic" k2="-1" k3="1"/>
<feColorMatrix type="matrix" values="0 0 0 0 0.364464 0 0 0 0 0.00407942 0 0 0 0 0.00407942 0 0 0 0.25 0"/>
<feBlend mode="normal" in2="shape" result="effect1_innerShadow_0_1"/>
</filter>
<filter id="filter5_i_0_1" x="153" y="355" width="159" height="140" filterUnits="userSpaceOnUse" color-interpolation-filters="sRGB">
<feFlood flood-opacity="0" result="BackgroundImageFix"/>
<feBlend mode="normal" in="SourceGraphic" in2="BackgroundImageFix" result="shape"/>
<feColorMatrix in="SourceAlpha" type="matrix" values="0 0 0 0 0 0 0 0 0 0 0 0 0 0 0 0 0 0 127 0" result="hardAlpha"/>
<feOffset dx="-17" dy="-15"/>
<feGaussianBlur stdDeviation="2"/>
<feComposite in2="hardAlpha" operator="arithmetic" k2="-1" k3="1"/>
<feColorMatrix type="matrix" values="0 0 0 0 0 0 0 0 0 0 0 0 0 0 0 0 0 0 0.25 0"/>
<feBlend mode="normal" in2="shape" result="effect1_innerShadow_0_1"/>
</filter>
<filter id="filter6_i_0_1" x="26" y="424.522" width="153" height="124.17" filterUnits="userSpaceOnUse" color-interpolation-filters="sRGB">
<feFlood flood-opacity="0" result="BackgroundImageFix"/>
<feBlend mode="normal" in="SourceGraphic" in2="BackgroundImageFix" result="shape"/>
<feColorMatrix in="SourceAlpha" type="matrix" values="0 0 0 0 0 0 0 0 0 0 0 0 0 0 0 0 0 0 127 0" result="hardAlpha"/>
<feOffset dy="18"/>
<feGaussianBlur stdDeviation="2"/>
<feComposite in2="hardAlpha" operator="arithmetic" k2="-1" k3="1"/>
<feColorMatrix type="matrix" values="0 0 0 0 0 0 0 0 0 0 0 0 0 0 0 0 0 0 0.25 0"/>
<feBlend mode="normal" in2="shape" result="effect1_innerShadow_0_1"/>
</filter>
</defs>
</svg>
